# xmcd
#
# Track frame offsets: 
#        187
#        17355
#        31427
#        47450
#        63485
#        80590
#        100055
#        114677
#        127545
#        145440
#
# Disc length: 2275 seconds
#
# Revision: 4
# Processed by: cddbd v1.5.2PL0 Copyright (c) Steve Scherf et al.
# Submitted via: ExactAudioCopy v1.0b3
#
DISCID=7908e10a
DTITLE=Judd, Wynonna - Tell Me Why
DYEAR=1993
DGENRE=Country
TTITLE0=Tell Me Why
TTITLE1=Rock Bottom
TTITLE2=Only Love
TTITLE3=Let's Make A Baby King
TTITLE4=Is It Over Yet
TTITLE5=Father Sun
TTITLE6=Girls With Guitars
TTITLE7=Just Like New
TTITLE8=I Just Drove By
TTITLE9=That Was Yesterday
EXTD=
EXTT0=
EXTT1=
EXTT2=
EXTT3=
EXTT4=
EXTT5=
EXTT6=
EXTT7=
EXTT8=
EXTT9=
PLAYORDER=
